# Blender v2.68 (sub 0) OBJ File: 'house.blend'
# www.blender.org
mtllib house.mtl
o House_Cube.003
v -5.495297 1.995859 5.495297
v -5.495297 1.995859 -5.495297
v 5.495297 1.995859 -5.495297
v 5.495297 1.995859 5.495297
v -0.000000 0.000000 -0.000000
v -4.600298 -0.000000 -0.000000
v 4.616200 0.000001 -0.000000
v -0.000000 0.000000 -4.649616
v -0.000000 0.000000 4.634248
v 4.616200 0.000001 4.999999
v -4.600298 -0.000000 4.999999
v 4.616200 0.000001 -4.649616
v 4.616200 0.000001 4.634248
v -4.600298 -0.000000 4.634248
v -4.600298 -0.000000 -4.649616
v 3.077467 0.000001 -0.000000
v 1.538733 0.000000 -0.000000
v 1.538733 0.000000 -4.649616
v 3.077467 0.000001 -4.649616
v 1.538733 0.000000 4.634248
v 3.077467 0.000001 4.634248
v -5.495297 1.995859 5.495297
v -5.495297 1.995859 -5.495297
v 5.495297 1.995859 -5.495297
v 5.495297 1.995859 5.495297
v 0.000000 3.536778 0.000000
v 5.000000 0.000001 4.999999
v 5.000000 0.000001 -5.000000
v -5.000000 -0.000000 -5.000000
v -5.000000 -0.000000 4.999999
v -5.000000 -0.000000 -0.000000
v -0.000000 0.000000 4.999999
v 5.000000 0.000001 -0.000000
v -0.000000 0.000000 -5.000000
v -5.000000 -0.000000 4.634248
v -4.600298 -0.000000 -0.000000
v 4.616200 0.000001 -0.000000
v -0.000000 0.000000 -4.649616
v -0.000000 0.000000 4.634248
v 4.616200 0.000001 4.999999
v 5.000000 0.000001 4.634248
v 4.616200 0.000001 -5.000000
v -5.000000 -0.000000 -4.649616
v -4.600298 -0.000000 -5.000000
v 5.000000 0.000001 -4.649616
v -4.600298 -0.000000 4.999999
v 4.616200 0.000001 -4.649616
v 4.616200 0.000001 4.634248
v -4.600298 -0.000000 4.634248
v -4.600298 -0.000000 -4.649616
v 4.999999 1.996940 4.999999
v 4.999999 1.996940 -5.000000
v -5.000000 1.996938 -5.000000
v -5.000000 1.996938 4.999999
v -5.000000 1.996938 -0.000000
v -0.000000 1.996939 4.999999
v 4.999999 1.996940 -0.000000
v -0.000000 1.996939 -5.000000
v -5.000000 1.996938 4.634248
v -4.600298 1.996938 -0.000000
v 4.616200 1.996940 -0.000000
v -0.000000 1.996939 -4.649616
v -0.000000 1.996939 4.634248
v 4.616200 1.996940 4.999999
v 4.999999 1.996940 4.634248
v 4.616200 1.996940 -5.000000
v -5.000000 1.996938 -4.649616
v -4.600298 1.996938 -5.000000
v 4.999999 1.996940 -4.649616
v -4.600298 1.996938 4.999999
v 4.616200 1.996940 -4.649616
v 4.616200 1.996940 4.634248
v -4.600298 1.996938 4.634248
v -4.600298 1.996938 -4.649616
v 3.077467 0.000001 4.999999
v 1.538733 0.000000 4.999999
v 3.077467 0.000001 -5.000000
v 1.538733 0.000000 -5.000000
v 1.538733 0.000000 -4.649616
v 3.077467 0.000001 -4.649616
v 1.538733 0.000000 4.634248
v 3.077467 0.000001 4.634248
v 3.077467 1.996939 4.999999
v 1.538733 1.996939 4.999999
v 3.077467 1.996939 -5.000000
v 1.538733 1.996939 -5.000000
v 1.538733 1.996939 -4.649616
v 3.077466 1.996939 -4.649616
v 1.538733 1.996939 4.634248
v 3.077466 1.996939 4.634248
vt -2.616780 -1.343993
vt 4.521980 -1.355014
vt -2.594879 2.247904
vt 4.543882 2.236884
vt 2.547595 7.693510
vt 0.159845 7.686185
vt 2.569730 0.478410
vt 0.181981 0.471084
vt 2.591792 -6.712843
vt -6.956591 0.449184
vt 0.204043 -6.720170
vt -6.978724 7.664284
vt 9.364258 7.658875
vt 9.365999 8.226433
vt -4.937559 7.702749
vt 7.323092 7.708161
vt 4.935345 7.700836
vt 7.345229 0.493060
vt 4.957479 0.485735
vt 7.367290 -6.698194
vt 4.979542 -6.705520
vt -6.934528 -6.742069
vt -4.935818 8.270308
vt 11.151249 -0.121979
vt 4.012555 -0.140897
vt 7.614277 -3.224250
vt -3.036492 -2.447643
vt 4.102299 -2.443970
vt 0.526619 0.647048
vt -3.036492 1.128835
vt 4.102299 1.132508
vt 0.526618 4.223526
vt -10.197153 1.155275
vt -3.058364 1.158948
vt -6.634044 4.249966
vt 19.447212 -7.793306
vt 11.884727 -7.770103
vt 19.397224 -24.087021
vt 4.297166 -7.746828
vt 11.834743 -24.063812
vt -12.695267 -8.421450
vt -12.123489 -8.423204
vt -12.693348 -7.795139
vt -25.954330 8.623766
vt -25.328018 8.621845
vt -25.904343 24.917473
vt 4.272267 8.621845
vt 4.270510 8.050064
vt 20.565971 8.571857
vt -28.463585 -7.125061
vt -28.465340 -7.696840
vt -12.169876 -7.175047
vt -12.104239 2.923527
vt -12.096539 0.412515
vt 4.189470 2.973512
vt -28.440308 0.462503
vt -12.146599 0.412515
vt 19.422234 8.652580
vt 21.933250 8.644875
vt 19.472221 24.946289
vt 4.224035 -7.099981
vt 4.222203 -7.696842
vt 20.517746 -7.149969
vt 29.440323 8.621845
vt 21.983238 24.938583
vt -28.415276 8.621845
vt -28.417114 8.024986
vt -12.121567 8.571857
vt -22.841911 8.654581
vt -22.189651 8.652578
vt -22.791924 24.948292
vt 3.632994 -13.443394
vt 3.625291 -15.954407
vt 4.229853 -13.445225
vt 3.602258 -23.461483
vt 3.600258 -24.113747
vt 4.199115 -23.463318
vt -11.547787 -23.415009
vt -11.549788 -24.067268
vt -3.960225 -23.438286
vt -11.499722 -7.748587
vt -11.501644 -8.374893
vt -3.912161 -7.771862
vt -12.071507 -7.746830
vt -12.073425 -8.373138
vt -12.088831 -13.395164
vt -12.096539 -15.906170
vt -11.517052 -13.396915
vt 3.650322 -7.795065
vt 3.648400 -8.421371
vt 4.247181 -7.796894
vt -3.914083 -8.398170
vt 4.222149 -15.956234
vt -3.962225 -24.090546
vt -12.119568 -23.413254
vt -11.524755 -15.907925
vt -12.121567 -24.065514
vt 1.661205 8.629547
vt 4.172217 8.621845
vt 1.711191 24.923260
vt 19.422234 24.915550
vt 11.834675 24.938828
vt 19.372253 8.621845
vt -12.073507 -7.094566
vt 4.197173 0.462501
vt -12.123398 7.975000
vt 4.247235 0.462501
vt 20.540943 0.412515
vt -12.071507 -7.746828
vt 4.220203 -7.044580
vt -12.119644 7.945547
vt 4.172139 8.621845
vt -10.867897 8.667986
vt -3.360815 8.644957
vt -10.817911 24.961693
vt 4.272186 24.962032
vt 11.784685 8.645121
vt -14.682571 8.629547
vt -22.139664 24.946281
vt 20.564217 8.000076
vt -28.465340 8.631468
vt -28.415352 24.925182
vt -12.169630 -23.463318
vt -12.741413 -23.461563
vt -12.743412 -24.113823
vt -27.893456 -24.067345
vt -27.891464 -23.415085
vt -28.490318 -24.065514
vt -28.442177 -8.373137
vt -27.845314 -8.374971
vt -28.440254 -7.746830
vt -27.843399 -7.748661
vt -12.111942 5.434541
vt 4.174063 7.995535
vt 4.181767 5.484528
vt 19.447212 -24.079308
vt 21.958221 -24.087021
vt 19.497204 -7.785604
vt -12.121567 8.623674
vt -11.524710 8.621845
vt -12.071583 24.917385
vt 3.640694 -10.932384
vt 4.245259 -8.423204
vt -12.081129 -10.884150
vt -11.509348 -10.885906
vt -0.849804 8.637255
vt -3.310829 24.938660
vt -0.799818 24.930962
vt -12.171555 8.621845
vt -14.632580 24.923260
vt -23.488754 8.623674
vt -22.891891 8.621845
vt -23.438766 24.917385
vt -24.093311 8.623674
vt -23.496452 8.621845
vt -24.085609 11.134689
vt -27.860725 -13.396992
vt -28.457581 -13.395157
vt -27.868431 -15.908001
vt -28.488312 -23.413250
vt -28.465286 -15.906170
vt -28.449883 -10.884150
vt -27.853020 -10.885979
vt 4.247181 -24.040535
vt -12.121571 -7.796894
vt -25.278030 24.915550
vt -12.171631 -7.746828
vt 20.515915 -7.746828
vt 29.490318 24.915558
vt 4.197114 -24.115582
vt 4.222203 24.915550
vt 4.222203 8.668320
vt -12.171635 -24.115582
vt 22.008217 -7.793306
vt -11.474724 24.915550
vt 4.237551 -10.934216
vt -12.121571 24.915558
vt -22.841911 24.915550
vt -23.488754 11.132856
vn -0.000000 -1.000000 -0.000000
vn -0.000000 1.000000 0.000000
vn 0.000000 0.962862 -0.269993
vn -0.269993 0.962862 0.000000
vn 0.000000 0.962862 0.269993
vn 0.269993 0.962862 -0.000000
vn 1.000000 0.000000 -0.000000
vn 0.000000 0.000000 1.000000
vn -1.000000 -0.000000 -0.000000
vn 0.000000 -0.000000 -1.000000
vn -1.000000 -0.000000 0.000001
usemtl Material.004
s off
f 2/1/1 3/2/1 1/3/1
f 3/2/1 4/4/1 1/3/1
usemtl Material.002
f 18/5/2 8/6/2 17/7/2
f 17/7/2 5/8/2 20/9/2
f 5/8/2 6/10/2 9/11/2
f 8/6/2 15/12/2 5/8/2
f 10/13/2 13/14/2 11/15/2
f 12/16/2 19/17/2 7/18/2
f 19/17/2 18/5/2 16/19/2
f 7/18/2 16/19/2 13/20/2
f 16/19/2 17/7/2 21/21/2
f 8/6/2 5/8/2 17/7/2
f 5/8/2 9/11/2 20/9/2
f 6/10/2 14/22/2 9/11/2
f 15/12/2 6/10/2 5/8/2
f 13/14/2 14/23/2 11/15/2
f 19/17/2 16/19/2 7/18/2
f 18/5/2 17/7/2 16/19/2
f 16/19/2 21/21/2 13/20/2
f 17/7/2 20/9/2 21/21/2
usemtl Material.003
f 24/24/3 23/25/3 26/26/3
f 23/27/4 22/28/4 26/29/4
f 22/30/5 25/31/5 26/32/5
f 25/33/6 24/34/6 26/35/6
usemtl Material.001
f 49/36/7 36/37/7 73/38/7
f 36/37/7 50/39/7 60/40/7
f 47/41/1 42/42/1 45/43/1
f 40/44/8 27/45/8 64/46/8
f 29/47/9 43/48/9 53/49/9
f 45/50/7 28/51/7 69/52/7
f 78/53/10 34/54/10 86/55/10
f 33/56/7 45/50/7 57/57/7
f 81/58/10 39/59/10 89/60/10
f 35/61/9 30/62/9 59/63/9
f 39/59/10 49/64/10 63/65/10
f 27/66/7 41/67/7 51/68/7
f 30/69/8 46/70/8 54/71/8
f 89/72/2 63/73/2 84/74/2
f 73/75/2 59/76/2 70/77/2
f 74/78/2 67/79/2 60/80/2
f 69/81/2 71/82/2 57/83/2
f 52/84/2 66/85/2 69/81/2
f 86/86/2 58/87/2 87/88/2
f 65/89/2 72/90/2 51/91/2
f 57/83/2 61/92/2 65/89/2
f 63/73/2 73/75/2 56/93/2
f 60/80/2 55/94/2 73/75/2
f 58/87/2 68/95/2 62/96/2
f 68/95/2 53/97/2 74/78/2
f 80/98/8 47/99/8 88/100/8
f 47/101/9 37/102/9 71/103/9
f 34/54/10 44/104/10 58/105/10
f 41/67/7 33/56/7 65/106/7
f 31/107/9 35/61/9 55/108/9
f 44/104/10 29/109/10 68/110/10
f 28/68/10 42/111/10 52/112/10
f 50/113/8 38/114/8 74/115/8
f 37/102/9 48/116/9 61/117/9
f 46/70/8 32/118/8 70/119/8
f 43/48/9 31/107/9 67/120/9
f 75/121/8 40/44/8 83/122/8
f 42/42/1 47/41/1 44/123/1
f 50/124/1 43/125/1 44/123/1
f 35/126/1 43/125/1 49/127/1
f 35/126/1 49/127/1 30/128/1
f 40/129/1 48/130/1 27/131/1
f 48/130/1 47/41/1 41/132/1
f 42/111/10 77/133/10 66/134/10
f 77/133/10 78/53/10 85/135/10
f 48/136/10 82/137/10 72/138/10
f 89/139/7 84/140/7 81/141/7
f 72/90/2 90/142/2 64/143/2
f 66/85/2 85/144/2 71/82/2
f 85/144/2 86/86/2 88/145/2
f 38/114/8 79/146/8 62/147/8
f 79/146/8 80/98/8 87/148/8
f 32/118/8 76/149/8 56/150/8
f 83/151/11 90/152/11 75/153/11
f 84/154/1 89/155/1 83/156/1
f 81/157/1 76/158/1 39/159/1
f 46/160/1 49/127/1 32/161/1
f 75/162/1 82/163/1 40/129/1
f 36/37/7 60/40/7 73/38/7
f 50/39/7 74/164/7 60/40/7
f 42/42/1 28/165/1 45/43/1
f 27/45/8 51/166/8 64/46/8
f 43/48/9 67/120/9 53/49/9
f 28/51/7 52/167/7 69/52/7
f 34/54/10 58/105/10 86/55/10
f 45/50/7 69/52/7 57/57/7
f 39/59/10 63/65/10 89/60/10
f 30/62/9 54/168/9 59/63/9
f 49/64/10 73/169/10 63/65/10
f 41/67/7 65/106/7 51/68/7
f 46/70/8 70/119/8 54/71/8
f 63/73/2 56/93/2 84/74/2
f 59/76/2 54/170/2 70/77/2
f 67/79/2 55/94/2 60/80/2
f 71/82/2 61/92/2 57/83/2
f 66/85/2 71/82/2 69/81/2
f 58/87/2 62/96/2 87/88/2
f 72/90/2 64/143/2 51/91/2
f 61/92/2 72/90/2 65/89/2
f 73/75/2 70/77/2 56/93/2
f 55/94/2 59/76/2 73/75/2
f 68/95/2 74/78/2 62/96/2
f 53/97/2 67/79/2 74/78/2
f 47/99/8 71/171/8 88/100/8
f 37/102/9 61/117/9 71/103/9
f 44/104/10 68/110/10 58/105/10
f 33/56/7 57/57/7 65/106/7
f 35/61/9 59/63/9 55/108/9
f 29/109/10 53/62/10 68/110/10
f 42/111/10 66/134/10 52/112/10
f 38/114/8 62/147/8 74/115/8
f 48/116/9 72/172/9 61/117/9
f 32/118/8 56/150/8 70/119/8
f 31/107/9 55/108/9 67/120/9
f 40/44/8 64/46/8 83/122/8
f 47/41/1 50/124/1 44/123/1
f 43/125/1 29/173/1 44/123/1
f 43/125/1 50/124/1 49/127/1
f 49/127/1 46/160/1 30/128/1
f 48/130/1 41/132/1 27/131/1
f 47/41/1 45/43/1 41/132/1
f 77/133/10 85/135/10 66/134/10
f 78/53/10 86/55/10 85/135/10
f 82/137/10 90/174/10 72/138/10
f 84/140/7 76/175/7 81/141/7
f 90/142/2 83/176/2 64/143/2
f 85/144/2 88/145/2 71/82/2
f 86/86/2 87/88/2 88/145/2
f 79/146/8 87/148/8 62/147/8
f 80/98/8 88/100/8 87/148/8
f 76/149/8 84/177/8 56/150/8
f 90/152/11 82/178/11 75/153/11
f 89/155/1 90/179/1 83/156/1
f 76/158/1 32/161/1 39/159/1
f 49/127/1 39/159/1 32/161/1
f 82/163/1 48/130/1 40/129/1
