# Blender v2.68 (sub 0) OBJ File: ''
# www.blender.org
mtllib crate.mtl
o Cube_Cube.001
v -1.000000 2.000000 1.000000
v -1.000000 2.000000 -1.000000
v -1.000000 0.000000 -1.000000
v -1.000000 -0.000000 1.000000
v 1.000000 2.000000 -1.000000
v 1.000000 0.000000 -1.000000
v 1.000000 2.000000 1.000000
v 1.000000 -0.000000 1.000000
vt 0.000000 0.000000
vt 1.000000 0.000000
vt 0.000000 1.000000
vt 1.000000 1.000000
vn -1.000000 0.000000 0.000000
vn 0.000000 0.000000 -1.000000
vn 1.000000 -0.000000 0.000000
vn 0.000000 -0.000000 1.000000
vn 0.000000 -1.000000 -0.000000
vn 0.000000 1.000000 0.000000
usemtl Material.001
s off
f 1/1/1 2/2/1 4/3/1
f 2/1/2 5/2/2 3/3/2
f 5/1/3 7/2/3 6/3/3
f 7/1/4 1/2/4 8/3/4
f 4/1/5 3/2/5 8/3/5
f 2/4/6 1/3/6 5/2/6
f 2/2/1 3/4/1 4/3/1
f 5/2/2 6/4/2 3/3/2
f 7/2/3 8/4/3 6/3/3
f 1/2/4 4/4/4 8/3/4
f 3/2/5 6/4/5 8/3/5
f 1/3/6 7/1/6 5/2/6
